<svg preserveAspectRatio="xMidYMid meet" data-bbox="169.1 179.7 1577.769 720.5" viewBox="169.1 179.7 1577.769 720.5" xmlns="http://www.w3.org/2000/svg" data-type="color" role="presentation" aria-hidden="true">
    <g>
        <path fill="#fff" d="M758.848 900.2V179.7h2.6v720.5h-2.6z" data-color="1"></path>
        <path d="M935.5 338.8c13.2 0 21.5 8 21.5 21.1s-8.3 21-21.5 21h-15.8v19.4c0 2.3-.8 3.1-3.1 3.1h-5.2c-2.3 0-3.2-.8-3.2-3.1v-58.4c0-2.3.9-3.1 3.2-3.1h24.1zm-1.1 31.4c6.6 0 10.6-3.8 10.6-10.4s-3.9-10.5-10.6-10.5h-14.7v20.8h14.7z" fill="#fff" data-color="1"></path>
        <path d="M1005 338.8c2.3 0 3.2.8 3.2 3.1v4.5c0 2.3-.9 3.1-3.2 3.1h-27.8v15.9h23.6c2.3 0 3.1.8 3.1 3.1v4.5c0 2.3-.8 3.1-3.1 3.1h-23.6v16.7h28.8c2.3 0 3.1.8 3.1 3.1v4.5c0 2.3-.8 3.1-3.1 3.1h-37.1c-2.3 0-3.2-.8-3.2-3.1V342c0-2.3.9-3.1 3.2-3.1h36.1z" fill="#fff" data-color="1"></path>
        <path d="M1041.4 337.4c12.6 0 19.5 4.4 23.9 13.7.9 1.9.4 3.3-1.7 4.2l-5 2.2c-2.1.8-2.8.5-3.9-1.5-2.5-5.1-6.4-7.6-13.3-7.6-8.8 0-13.2 2.8-13.2 8.4-.5 4.8 4.8 7 9.6 7.7 2.8.5 9.4 1.3 12.7 1.9 3.6.7 8.6 2.5 11.5 5.1 2.8 2.5 5 7.1 5 12.9 0 12.4-9.6 20.4-25.9 20.4-13.7 0-21.1-5-25-15.2-.8-2.3-.3-3.3 1.9-4l5-1.8c2.1-.7 2.9-.3 3.9 1.9 2.4 5.6 7.1 8.5 14.2 8.5 9.6 0 14.5-3.2 14.5-9.5 0-4-3.5-6.5-7.1-7.4-1.8-.5-4.3-.8-7.3-1.1-4.1-.5-5.8-.6-9.7-1.5s-5.8-1.8-8.7-3.7c-4.1-2.6-6-6.9-6.3-13.7 0-11.9 9-19.9 24.9-19.9z" fill="#fff" data-color="1"></path>
        <path d="M1087 381.2c0 8.3 4.8 12.8 14 12.8s14-4.6 14-12.8v-39.4c0-2.3.8-3.1 3.1-3.1h5.2c2.3 0 3.1.8 3.1 3.1v39.3c0 14.6-9 23.6-25.4 23.6s-25.5-9-25.5-23.6v-39.3c0-2.3.8-3.1 3.1-3.1h5.3c2.3 0 3.1.8 3.1 3.1v39.4z" fill="#fff" data-color="1"></path>
        <path d="M1159 360.3c0-14.3 8.8-22.8 24.9-22.8 13.6 0 20.9 5.1 24.2 15.6.5 1.4.3 1.9-1.1 2.4l-2.8 1c-1.2.3-1.9-.1-2.4-1.1-2.5-8.1-7.6-11.7-17.9-11.7-11.9 0-18.3 6.1-18.3 16.7v21.7c0 10.5 6.6 16.7 18.3 16.7 10.5 0 15.6-3.7 18.1-12 .5-1.1 1.3-1.5 2.4-1.2l2.8 1.1c1.1.5 1.5 1.2 1.1 2.3-3.3 10.6-10.6 15.9-24.4 15.9-15.9 0-24.9-8.6-24.9-22.8v-21.8z" fill="#fff" data-color="1"></path>
        <path d="M1215.9 374.4c0-12.1 7-19.2 20.1-19.2 13.2 0 20.2 7.5 20.2 18.8v5c0 1.7-.9 2.5-2.7 2.5H1222v5.3c0 7.9 4.8 12.5 13.7 12.5 6.7 0 11.5-2.5 14.3-7.6.7-1 1.6-1.2 2.6-.6l1.9 1c1.2.6 1.4 1.5.6 2.6-3.6 6.6-10.1 9.8-19.5 9.8-13.2 0-19.7-7-19.7-18.4v-11.7zm34.3-.7c0-8.3-4.9-13.2-14.1-13.2-9.1 0-14 4.9-14 13.2v3.2h28.1v-3.2z" fill="#fff" data-color="1"></path>
        <path d="M1286.1 355.2c12.1 0 18.1 5.9 18.1 17.8v28.7c0 1.1-.5 1.6-1.6 1.6h-2.8c-1.2 0-1.6-.5-1.6-1.6v-28.5c0-8.3-4.3-12.4-12.7-12.4-4.3 0-8.4.6-12.1 2-.9.5-1.4 1.2-1.4 2.3v36.6c0 1.1-.5 1.6-1.6 1.6h-2.9c-1.1 0-1.6-.5-1.6-1.6v-38.4c0-2.8.6-3.8 3.5-5 4.8-2.1 10.4-3.1 16.7-3.1z" fill="#fff" data-color="1"></path>
        <path d="M1324.4 345.7c1.4 0 1.6.5 1.6 1.6v9.3h13.2c1.1 0 1.6.5 1.6 1.6v2.4c0 1.1-.5 1.6-1.6 1.6H1326v23.7c0 5.3.9 8.7 2.7 10.4 1.7 1.7 5.2 2.5 10.3 2.5 1.1 0 1.6.5 1.6 1.7v2.5c0 1.2-.5 1.6-1.6 1.6-7.1.1-12-1.1-14.8-3.8-2.8-2.6-4.3-7.6-4.3-14.7v-23.8h-8.6c-1.1 0-1.6-.5-1.6-1.6v-2.4c0-1.1.5-1.6 1.6-1.6h8.6v-9.3c0-1.1.5-1.6 1.6-1.6h2.9z" fill="#fff" data-color="1"></path>
        <path d="M1346.2 374.4c0-12.1 7-19.2 20.1-19.2 13.2 0 20.2 7.5 20.2 18.8v5c0 1.7-.9 2.5-2.7 2.5h-31.5v5.3c0 7.9 4.8 12.5 13.7 12.5 6.7 0 11.5-2.5 14.3-7.6.7-1 1.6-1.2 2.6-.6l1.9 1c1.2.6 1.4 1.5.6 2.6-3.6 6.6-10.1 9.8-19.5 9.8-13.2 0-19.7-7-19.7-18.4v-11.7zm34.2-.7c0-8.3-4.9-13.2-14.1-13.2-9.1 0-14 4.9-14 13.2v3.2h28.1v-3.2z" fill="#fff" data-color="1"></path>
        <path d="M1418.7 355.2c1.1 0 1.6.5 1.6 1.6v2.4c0 1.1-.5 1.6-1.6 1.6h-3c-4.6 0-8.6.6-12 1.9-1 .5-1.5 1.2-1.5 2.4v36.6c0 1.1-.5 1.6-1.6 1.6h-2.9c-1.1 0-1.6-.5-1.6-1.6v-38.6c0-2.8.8-3.9 3.5-5.1 4.6-1.7 10.1-2.7 16.5-2.8h2.6z" fill="#fff" data-color="1"></path>
        <path d="M1468.5 336c1.4 0 1.6.5 1.6 1.6v2.4c0 1.2-.5 1.7-1.6 1.7-5 0-8.4.9-10.2 2.6-1.9 1.7-2.8 5.1-2.8 9.9v2.3h13.2c1.4 0 1.6.5 1.6 1.6v2.4c0 1.1-.5 1.6-1.6 1.6h-13.2v39.5c0 1.2-.5 1.6-1.6 1.6h-2.8c-1.1 0-1.6-.5-1.6-1.6v-39.5h-8.1c-1.1 0-1.6-.5-1.6-1.6v-2.4c0-1.2.5-1.6 1.6-1.6h8.1v-2.3c0-13 5.3-18 18.4-18.3h.6z" fill="#fff" data-color="1"></path>
        <path d="M1474.4 372c0-10.5 7.6-16.7 19.9-16.7 12.5 0 20.1 6.3 20.1 16.7v16c0 10.5-7.6 16.7-20.1 16.7-12.4 0-19.9-6.4-19.9-16.7v-16zm33.8 0c0-6.9-5.3-11.2-13.9-11.2-8.5 0-13.8 4.3-13.8 11.2v16c0 6.9 5.5 11.1 13.8 11.1 8.6 0 13.9-4.2 13.9-11.1v-16z" fill="#fff" data-color="1"></path>
        <path d="M1547.4 355.2c1.1 0 1.6.5 1.6 1.6v2.4c0 1.1-.5 1.6-1.6 1.6h-3c-4.6 0-8.6.6-12 1.9-1 .5-1.5 1.2-1.5 2.4v36.6c0 1.1-.5 1.6-1.6 1.6h-2.9c-1.1 0-1.6-.5-1.6-1.6v-38.6c0-2.8.8-3.9 3.5-5.1 4.6-1.7 10.1-2.7 16.5-2.8h2.6z" fill="#fff" data-color="1"></path>
        <path d="M908.2 451c0-2.3.9-3.1 3.2-3.1h5.2c2.3 0 3.1.8 3.1 3.1v58.4c0 2.3-.8 3.1-3.1 3.1h-5.2c-2.3 0-3.2-.8-3.2-3.1V451z" fill="#fff" data-color="1"></path>
        <path d="M952.1 464.1c12.7 0 18.9 6.6 18.9 18.3v27.4c0 2.1-.7 2.8-2.8 2.8h-5c-2.1 0-2.7-.7-2.7-2.8v-27.1c0-5.9-3.3-8.9-9.9-8.9-2.9 0-5.8.4-8.7 1.2-.5.2-.6.5-.6.9v33.9c0 2.1-.6 2.8-2.7 2.8h-5c-2.1 0-2.8-.7-2.8-2.8v-37.4c0-2.9.6-4 3.5-5.2 5.1-2.1 11-3.1 17.8-3.1z" fill="#fff" data-color="1"></path>
        <path d="M1005.9 445.2c2.2 0 2.9.7 2.9 2.9v4c0 2.2-.7 2.9-2.9 2.9-7.6 0-10.3 2.5-10.3 9.5v.9h10.5c2.1 0 2.7.6 2.7 2.7v4.2c0 2.1-.6 2.8-2.7 2.8h-10.5v34.6c0 2.1-.6 2.8-2.8 2.8H988c-2.2 0-2.9-.7-2.9-2.8v-34.6h-5.5c-2.1 0-2.7-.7-2.7-2.8v-4.2c0-2.1.6-2.7 2.7-2.7h5.5v-.9c0-12.6 6.6-19 20-19.3h.8z" fill="#fff" data-color="1"></path>
        <path d="M1012.6 482.3c0-11.4 7.6-18.2 20.9-18.2 13.5 0 21 6.8 21 18.2v13.5c0 11.4-7.6 18.2-21 18.2s-20.9-6.8-20.9-18.2v-13.5zm31.4 0c0-5.6-3.8-8.6-10.5-8.6-6.6 0-10.4 3.1-10.4 8.6v13.5c0 5.5 3.7 8.6 10.4 8.6 6.6 0 10.5-3.2 10.5-8.6v-13.5z" fill="#fff" data-color="1"></path>
        <path d="M1086.7 464.1c2.1 0 2.8.6 2.8 2.8v4c0 2.1-.7 2.8-2.8 2.8h-3.3c-3.4 0-6.3.4-8.6 1.1-.6.1-.9.5-.9 1.1v33.9c0 2.1-.6 2.8-2.7 2.8h-5c-2.1 0-2.8-.7-2.8-2.8V472c0-2.9.6-4 3.5-5.2 4.5-1.6 10.1-2.5 16.9-2.7h2.9z" fill="#fff" data-color="1"></path>
        <path d="M1142.5 464.1c11.9 0 17.8 6 17.8 18.1v27.6c0 2.1-.6 2.8-2.7 2.8h-5c-2.1 0-2.8-.7-2.8-2.8v-27.2c0-5.9-2.9-8.8-8.8-8.8-2.7 0-5.6.5-8.8 1.6.6 1.7 1 4 1 6.8v27.6c0 2.1-.7 2.8-2.8 2.8h-4.9c-2.1 0-2.8-.7-2.8-2.8v-27.2c0-5.9-3-8.8-8.9-8.8-2.6 0-5 .4-7.3 1.1-.5.2-.7.5-.7 1.1v33.9c0 2.1-.6 2.8-2.7 2.8h-5c-2.1 0-2.8-.7-2.8-2.8v-37.4c0-2.9.7-4 3.5-5.2 5-2.1 10.6-3.1 16.6-3.1 4.8 0 8.6 1 11.3 3 4.8-2.1 10.1-3.1 15.8-3.1z" fill="#fff" data-color="1"></path>
        <path d="M1188.5 464.1c13 0 19.5 6.3 19.5 18.7v23.6c0 3.2-.7 4.1-3.3 5.2-3.6 1.5-9.1 2.4-16.4 2.4-7.7 0-13-1.2-15.9-3.6-2.9-2.4-4.4-6.1-4.4-11.1 0-10.8 5.8-14.7 20.7-14.7.6 0 3.5.2 8.7.5v-2.5c0-5.9-2.5-9-9.1-9-4.5 0-7.6 1.5-9.6 4.4-1.4 1.9-1.8 2.1-3.9 1.4l-3.6-1.5c-2-.9-2.5-2.3-1.5-4.1 3.3-6.6 9.6-9.7 18.8-9.7zm9 29.5c-6.4-.3-9.6-.5-9.9-.5-6.6 0-8.7 1.9-8.7 5.9 0 4.1 1.9 6.1 8.6 6.1 3.9 0 6.9-.3 9.1-.7.6-.3 1-.6 1-1.3v-9.5z" fill="#fff" data-color="1"></path>
        <path d="M1229.7 454.5c2.1 0 2.8.6 2.8 2.7v8.2h10.4c2.1 0 2.8.6 2.8 2.7v4.2c0 2.1-.7 2.8-2.8 2.8h-10.4v18.3c0 4.3.7 7.1 2.2 8.5 1.4 1.4 4.1 2 8.1 2 2.2 0 2.9.6 2.9 2.8v4.2c0 2.2-.7 2.8-2.9 2.9-7.6.3-13-1.1-16.1-4-3.2-2.9-4.7-8.3-4.7-16v-18.7h-6.3c-2.1 0-2.7-.7-2.7-2.8v-4.2c0-2.1.6-2.7 2.7-2.7h6.3v-8.2c0-2.1.7-2.7 2.8-2.7h4.9z" fill="#fff" data-color="1"></path>
        <path d="M1258.3 447.8c4.3 0 5.6 1.4 5.6 5.5v.8c0 4.3-1.3 5.6-5.6 5.6h-.6c-4.1 0-5.6-1.3-5.6-5.6v-.8c0-4.1 1.3-5.5 5.6-5.5h.6zm2.2 17.6c2.1 0 2.8.6 2.8 2.7v41.6c0 2.1-.7 2.8-2.8 2.8h-5c-2.1 0-2.7-.7-2.7-2.8v-41.6c0-2.1.6-2.7 2.7-2.7h5z" fill="#fff" data-color="1"></path>
        <path d="M1272.3 482.3c0-11.4 7.6-18.2 20.9-18.2 13.5 0 21 6.8 21 18.2v13.5c0 11.4-7.6 18.2-21 18.2s-20.9-6.8-20.9-18.2v-13.5zm31.4 0c0-5.6-3.8-8.6-10.5-8.6s-10.4 3.1-10.4 8.6v13.5c0 5.5 3.7 8.6 10.4 8.6s10.5-3.2 10.5-8.6v-13.5z" fill="#fff" data-color="1"></path>
        <path d="M1344.5 464.1c12.7 0 18.9 6.6 18.9 18.3v27.4c0 2.1-.7 2.8-2.8 2.8h-5c-2.1 0-2.7-.7-2.7-2.8v-27.1c0-5.9-3.3-8.9-9.9-8.9-2.9 0-5.8.4-8.7 1.2-.5.2-.6.5-.6.9v33.9c0 2.1-.6 2.8-2.7 2.8h-5c-2.1 0-2.8-.7-2.8-2.8v-37.4c0-2.9.6-4 3.5-5.2 5.1-2.1 11-3.1 17.8-3.1z" fill="#fff" data-color="1"></path>
        <path d="M1417.5 446.6c12.6 0 19.5 4.4 23.9 13.7.9 1.9.4 3.3-1.7 4.2l-5 2.2c-2.1.8-2.8.5-3.9-1.5-2.5-5.1-6.4-7.6-13.3-7.6-8.8 0-13.2 2.8-13.2 8.4-.5 4.8 4.8 7 9.6 7.7 2.8.5 9.4 1.3 12.7 1.9 3.6.7 8.6 2.5 11.5 5.1 2.8 2.5 5 7.1 5 12.9 0 12.4-9.6 20.4-25.9 20.4-13.7 0-21.1-5-25-15.2-.8-2.3-.3-3.3 1.9-4l5-1.8c2.1-.7 2.9-.3 3.9 1.9 2.4 5.6 7.1 8.5 14.2 8.5 9.6 0 14.5-3.2 14.5-9.5 0-4-3.5-6.5-7.1-7.4-1.8-.5-4.3-.8-7.3-1.1-4.1-.5-5.8-.6-9.7-1.5s-5.8-1.8-8.7-3.7c-4.1-2.6-6-6.9-6.3-13.7 0-11.9 9-19.9 24.9-19.9z" fill="#fff" data-color="1"></path>
        <path d="M1449.4 483.7c0-12.7 7.4-19.7 21.1-19.7 13.8 0 21 7.8 21 18.8v5.6c0 2.6-1.4 3.9-4.1 3.9h-27.5v3.4c0 5.9 3.7 9.1 10.4 9.1 5.1 0 8.6-1.6 10.7-4.8 1.5-2.1 2.5-2.3 4.6-1.1l3.2 1.7c2.1 1 2.5 2.5 1.1 4.6-3.5 5.8-10.1 8.7-19.7 8.7-14.2 0-20.9-7.6-20.9-19.5v-10.7zm31.5-1.4c0-5.9-3.5-9.3-10.5-9.3-6.8 0-10.6 3.4-10.6 9.3v2h21v-2z" fill="#fff" data-color="1"></path>
        <path d="M1498.3 482.7c0-11.9 7-18.7 20.9-18.7 10.3 0 17 4.7 19.5 11.9.7 2.3.2 3.3-2 4.1l-4 1.3c-2.2.8-3.2.3-4-1.9-1.5-4.1-4.9-6.1-9.9-6.1-6.6 0-9.9 3-9.9 8.9v13.5c0 5.7 3.5 8.9 9.9 8.9 5 0 8.4-2.1 9.9-6.3.8-2.2 1.8-2.5 4-1.8l4.1 1.2c2.1.8 2.7 2.2 1.9 4.1-3.2 8.1-9.9 12.1-20.3 12.1-13.5 0-20.1-6.7-20.1-18.7v-12.5z" fill="#fff" data-color="1"></path>
        <path d="M1584 465.4c2.1 0 2.8.6 2.8 2.7v37.5c0 2.9-.6 3.9-3.5 5.1-5.4 2.1-11.3 3.2-17.8 3.2-12.7 0-19-6.6-19-18.3v-27.5c0-2.1.7-2.7 2.8-2.7h5c2.1 0 2.7.6 2.7 2.7v27.1c0 6 3.3 9 9.9 9 3.2 0 5.9-.4 8.4-1.1.6-.3 1-.7 1-1.5v-33.5c0-2.1.7-2.7 2.8-2.7h4.9z" fill="#fff" data-color="1"></path>
        <path d="M1620.4 464.1c2.1 0 2.8.6 2.8 2.8v4c0 2.1-.7 2.8-2.8 2.8h-3.3c-3.4 0-6.3.4-8.6 1.1-.6.1-.9.5-.9 1.1v33.9c0 2.1-.6 2.8-2.7 2.8h-5c-2.1 0-2.8-.7-2.8-2.8V472c0-2.9.6-4 3.5-5.2 4.5-1.6 10.1-2.5 16.9-2.7h2.9z" fill="#fff" data-color="1"></path>
        <path d="M1634.8 447.8c4.3 0 5.6 1.4 5.6 5.5v.8c0 4.3-1.3 5.6-5.6 5.6h-.6c-4.1 0-5.6-1.3-5.6-5.6v-.8c0-4.1 1.3-5.5 5.6-5.5h.6zm2.2 17.6c2.1 0 2.8.6 2.8 2.7v41.6c0 2.1-.7 2.8-2.8 2.8h-5c-2.1 0-2.7-.7-2.7-2.8v-41.6c0-2.1.6-2.7 2.7-2.7h5z" fill="#fff" data-color="1"></path>
        <path d="M1662.6 454.5c2.1 0 2.8.6 2.8 2.7v8.2h10.4c2.1 0 2.8.6 2.8 2.7v4.2c0 2.1-.7 2.8-2.8 2.8h-10.4v18.3c0 4.3.7 7.1 2.2 8.5 1.4 1.4 4.1 2 8.1 2 2.2 0 2.9.6 2.9 2.8v4.2c0 2.2-.7 2.8-2.9 2.9-7.6.3-13-1.1-16.1-4-3.2-2.9-4.7-8.3-4.7-16v-18.7h-6.3c-2.1 0-2.7-.7-2.7-2.8v-4.2c0-2.1.6-2.7 2.7-2.7h6.3v-8.2c0-2.1.7-2.7 2.8-2.7h4.9z" fill="#fff" data-color="1"></path>
        <path d="M1723.3 465.4c2.1 0 2.8.6 2.8 2.7v46c0 12.5-6.3 19.8-20 19.8-9 0-15.4-2.9-18.9-8.7-1.3-2-.9-3.5 1.2-4.6l3.5-1.9c2.2-1.1 3.2-.8 4.6 1.1 1.9 3.1 5.1 4.6 9.6 4.6 6.5 0 9.6-3.3 9.6-9.8v-4.3c-3.7.8-7.4 1.3-10.8 1.3-12.7 0-19-6.6-19-18.3v-25.2c0-2.1.7-2.7 2.8-2.7h5c2.1 0 2.7.6 2.7 2.7V493c0 6 3.3 9 9.9 9 3 0 6.1-.5 9.4-1.3v-32.6c0-2.1.7-2.7 2.8-2.7h4.8z" fill="#fff" data-color="1"></path>
        <path d="M1741.1 520.8c-.7 2.2-1.5 2.8-3.5 2.8h-2c-1.7 0-2.2-.4-1.9-2.1l2.3-16.9c.4-2.5 1.3-3.3 3.7-3.3h4.1c2.6 0 3.6 1.1 2.8 3.3l-5.5 16.2z" fill="#fff" data-color="1"></path>
        <path d="M947.5 557.2c2.3 0 3.2.8 3.2 3.1v4.5c0 2.3-.9 3.1-3.2 3.1h-27.8v16.7H943c2.3 0 3.2.8 3.2 3.1v4.5c0 2.3-.7 3.1-3.2 3.1h-23.4v23.5c0 2.3-.8 3.1-3.1 3.1h-5.2c-2.3 0-3.2-.8-3.2-3.1v-58.4c0-2.3.9-3.1 3.2-3.1h36.2z" fill="#fff" data-color="1"></path>
        <path d="M953.8 591.5c0-11.4 7.6-18.2 20.9-18.2 13.5 0 21 6.8 21 18.2V605c0 11.4-7.6 18.2-21 18.2s-20.9-6.8-20.9-18.2v-13.5zm31.4 0c0-5.6-3.8-8.6-10.5-8.6s-10.4 3.1-10.4 8.6V605c0 5.5 3.7 8.6 10.4 8.6s10.5-3.2 10.5-8.6v-13.5z" fill="#fff" data-color="1"></path>
        <path d="M1027.9 573.3c2.1 0 2.8.6 2.8 2.8v4c0 2.1-.7 2.8-2.8 2.8h-3.3c-3.4 0-6.3.4-8.6 1.1-.6.1-.9.5-.9 1.1V619c0 2.1-.6 2.8-2.7 2.8h-5c-2.1 0-2.8-.7-2.8-2.8v-37.8c0-2.9.6-4 3.5-5.2 4.5-1.6 10.1-2.5 16.9-2.7h2.9z" fill="#fff" data-color="1"></path>
        <path d="M1034 592.9c0-12.7 7.4-19.7 21.1-19.7 13.8 0 21 7.8 21 18.8v5.6c0 2.6-1.4 3.9-4.1 3.9h-27.5v3.4c0 5.9 3.7 9.1 10.4 9.1 5.1 0 8.6-1.6 10.7-4.8 1.5-2.1 2.5-2.3 4.6-1.1l3.2 1.7c2.1 1 2.5 2.5 1.1 4.6-3.5 5.8-10.1 8.7-19.7 8.7-14.2 0-20.9-7.6-20.9-19.5v-10.7zm31.6-1.4c0-5.9-3.5-9.3-10.5-9.3-6.8 0-10.6 3.4-10.6 9.3v2h21v-2z" fill="#fff" data-color="1"></path>
        <path d="M1105.8 573.3c12.7 0 18.9 6.6 18.9 18.3V619c0 2.1-.7 2.8-2.8 2.8h-5c-2.1 0-2.7-.7-2.7-2.8v-27.1c0-5.9-3.3-8.9-9.9-8.9-2.9 0-5.8.4-8.7 1.2-.5.2-.6.5-.6.9V619c0 2.1-.6 2.8-2.7 2.8h-5c-2.1 0-2.8-.7-2.8-2.8v-37.4c0-2.9.6-4 3.5-5.2 5.1-2.1 11-3.1 17.8-3.1z" fill="#fff" data-color="1"></path>
        <path d="M1152.9 573.3c9.7 0 16.3 3.3 19.5 9.7 1 1.8.5 3.2-1.5 4.1l-4.1 1.6c-2.1.8-2.6.6-3.8-1.3-1.7-3.2-5-4.7-9.8-4.7-5.7 0-8.6 1.6-8.6 4.9 0 4 2.7 4.9 10.6 5.6 12.4 1.2 18.6 4.5 18.6 14.7 0 9.2-7 15.2-19.7 15.2-10.6 0-17.5-3.6-20.3-11-.7-1.9-.1-3.2 1.8-3.8l4.1-1.3c1.8-.7 2.9-.4 3.7 1.7 1.4 3.4 4.8 5 10.3 5 6.5 0 9.6-1.8 9.6-5.4 0-4-2.8-5-10.9-5.8-4.3-.5-6.7-.8-10.3-2.2-1.7-.6-3.2-1.5-4.3-2.5-2.2-1.9-3.8-5.4-3.8-10 .1-8.9 6.6-14.5 18.9-14.5z" fill="#fff" data-color="1"></path>
        <path d="M1186.3 557c4.3 0 5.6 1.4 5.6 5.5v.8c0 4.3-1.3 5.6-5.6 5.6h-.6c-4.1 0-5.6-1.3-5.6-5.6v-.8c0-4.1 1.3-5.5 5.6-5.5h.6zm2.2 17.6c2.1 0 2.8.6 2.8 2.7v41.6c0 2.1-.7 2.8-2.8 2.8h-5c-2.1 0-2.7-.7-2.7-2.8v-41.6c0-2.1.6-2.7 2.7-2.7h5z" fill="#fff" data-color="1"></path>
        <path d="M1200.2 591.9c0-11.9 7-18.7 20.9-18.7 10.3 0 17 4.7 19.5 11.9.7 2.3.2 3.3-2 4.1l-4 1.3c-2.2.8-3.2.3-4-1.9-1.5-4.1-4.9-6.1-9.9-6.1-6.6 0-9.9 3-9.9 8.9v13.5c0 5.7 3.5 8.9 9.9 8.9 5 0 8.4-2.1 9.9-6.3.8-2.2 1.8-2.5 4-1.8l4.1 1.2c2.1.8 2.7 2.2 1.9 4.1-3.2 8.1-9.9 12.1-20.3 12.1-13.5 0-20.1-6.7-20.1-18.7v-12.5z" fill="#fff" data-color="1"></path>
        <path d="M1266.8 573.3c9.7 0 16.3 3.3 19.5 9.7 1 1.8.5 3.2-1.5 4.1l-4.1 1.6c-2.1.8-2.6.6-3.8-1.3-1.7-3.2-5-4.7-9.8-4.7-5.7 0-8.6 1.6-8.6 4.9 0 4 2.7 4.9 10.6 5.6 12.4 1.2 18.6 4.5 18.6 14.7 0 9.2-7 15.2-19.7 15.2-10.6 0-17.5-3.6-20.3-11-.7-1.9-.1-3.2 1.8-3.8l4.1-1.3c1.8-.7 2.9-.4 3.7 1.7 1.4 3.4 4.8 5 10.3 5 6.5 0 9.6-1.8 9.6-5.4 0-4-2.8-5-10.9-5.8-4.3-.5-6.7-.8-10.3-2.2-1.7-.6-3.2-1.5-4.3-2.5-2.2-1.9-3.8-5.4-3.8-10 .2-8.9 6.6-14.5 18.9-14.5z" fill="#fff" data-color="1"></path>
        <path d="M1332.6 573.3c13 0 19.5 6.3 19.5 18.7v23.6c0 3.2-.7 4.1-3.3 5.2-3.6 1.5-9.1 2.4-16.4 2.4-7.7 0-13-1.2-15.9-3.6-2.9-2.4-4.4-6.1-4.4-11.1 0-10.8 5.8-14.7 20.7-14.7.6 0 3.5.2 8.7.5v-2.5c0-5.9-2.5-9-9.1-9-4.5 0-7.6 1.5-9.6 4.4-1.4 1.9-1.8 2.1-3.9 1.4l-3.6-1.5c-2-.9-2.5-2.3-1.5-4.1 3.2-6.6 9.5-9.7 18.8-9.7zm8.9 29.5c-6.4-.3-9.6-.5-9.9-.5-6.6 0-8.7 1.9-8.7 5.9 0 4.1 1.9 6.1 8.6 6.1 3.9 0 6.9-.3 9.1-.7.6-.3 1-.6 1-1.3v-9.5z" fill="#fff" data-color="1"></path>
        <path d="M1383.1 573.3c12.7 0 18.9 6.6 18.9 18.3V619c0 2.1-.7 2.8-2.8 2.8h-5c-2.1 0-2.7-.7-2.7-2.8v-27.1c0-5.9-3.3-8.9-9.9-8.9-2.9 0-5.8.4-8.7 1.2-.5.2-.6.5-.6.9V619c0 2.1-.6 2.8-2.7 2.8h-5c-2.1 0-2.8-.7-2.8-2.8v-37.4c0-2.9.6-4 3.5-5.2 5.1-2.1 11-3.1 17.8-3.1z" fill="#fff" data-color="1"></path>
        <path d="M1410.7 592.3c0-12.4 6.4-19 19-19 2.8 0 6.4.4 10.8 1.2v-17.2c0-2.1.6-2.8 2.7-2.8h5c2.1 0 2.8.7 2.8 2.8v58c0 2.9-.7 3.8-3.6 5-5.2 1.9-10.8 2.9-17 2.9-13.2 0-19.7-6.1-19.7-18.4v-12.5zm29.8-8.2c-3.6-.8-6.6-1.2-8.8-1.2-7 0-10.5 3.2-10.5 9.6v11.8c0 6.1 3.4 9.1 10.2 9.1 3.2 0 6-.4 8.4-1 .5-.2.7-.5.7-1v-27.3z" fill="#fff" data-color="1"></path>
        <path d="M906.4 688.6c0-14.7 9.4-23.7 26-23.7 12.9 0 21.2 5.1 24.8 15.2.7 1.9.1 3.3-1.9 4l-5 1.7c-2.2.7-3.1.3-3.9-1.9-2-5.6-6.6-8.4-13.9-8.4-9.4 0-14.6 4.5-14.6 12.9v20.1c0 8.4 5.2 13 14.6 13 7.2 0 11.8-2.8 13.9-8.5 1-2.3 1.8-2.7 4-1.9l4.9 1.7c2 .7 2.6 2.1 2 4-3.5 10.2-11.8 15.3-24.8 15.3-16.7 0-26-8.9-26-23.8v-19.7z" fill="#fff" data-color="1"></path>
        <path d="M1003 683.8c2.1 0 2.8.6 2.8 2.7v46c0 12.5-6.3 19.8-20 19.8-9 0-15.4-2.9-18.9-8.7-1.3-2-.9-3.5 1.2-4.5l3.5-1.9c2.2-1.1 3.2-.8 4.6 1.1 1.9 3.1 5.1 4.6 9.6 4.6 6.5 0 9.6-3.3 9.6-9.8v-4.3c-3.7.8-7.4 1.3-10.8 1.3-12.7 0-19-6.6-19-18.3v-25.2c0-2.1.7-2.7 2.8-2.7h5c2.1 0 2.7.6 2.7 2.7v24.8c0 6 3.3 9 9.9 9 3 0 6.1-.5 9.4-1.3v-32.6c0-2.1.7-2.7 2.8-2.7h4.8z" fill="#fff" data-color="1"></path>
        <path d="M1023.6 663.6c2.1 0 2.7.7 2.7 2.8V684c4.5-1 8.1-1.5 10.9-1.5 12.6 0 18.9 6.1 18.9 18.3V713c0 12.8-6.8 19.3-20.6 19.3-6.5 0-11.9-1-16.5-2.9-2.9-1.4-3.4-2.1-3.4-5v-58c0-2.1.7-2.8 2.8-2.8h5.2zm22 37.4c0-5.7-3.5-8.9-9.9-8.9-3 0-6.1.5-9.4 1.6v26.8c0 .5.3.8.7 1 2.1.7 4.6 1.1 7.8 1.1 7.2 0 10.7-3.3 10.7-9.9V701z" fill="#fff" data-color="1"></path>
        <path d="M1063.6 702.1c0-12.7 7.4-19.7 21.1-19.7 13.8 0 21 7.8 21 18.8v5.6c0 2.6-1.4 3.9-4.1 3.9h-27.5v3.4c0 5.9 3.7 9.1 10.4 9.1 5.1 0 8.6-1.6 10.7-4.8 1.5-2.1 2.5-2.3 4.6-1.1l3.2 1.7c2.1 1 2.5 2.5 1.1 4.6-3.5 5.8-10.1 8.7-19.7 8.7-14.2 0-20.9-7.6-20.9-19.5v-10.7zm31.6-1.4c0-5.9-3.5-9.3-10.5-9.3-6.8 0-10.6 3.4-10.6 9.3v2h21v-2z" fill="#fff" data-color="1"></path>
        <path d="M1137.3 682.5c2.1 0 2.8.6 2.8 2.8v4c0 2.1-.7 2.8-2.8 2.8h-3.3c-3.4 0-6.3.4-8.6 1.1-.6.1-.9.5-.9 1.1v33.9c0 2.1-.6 2.8-2.7 2.8h-5c-2.1 0-2.8-.7-2.8-2.8v-37.8c0-2.9.6-4 3.5-5.2 4.5-1.6 10.1-2.5 16.9-2.7h2.9z" fill="#fff" data-color="1"></path>
        <path d="M1193.4 666.4c12.7 0 20.5 7.6 20.5 20 0 9.4-4.4 15.8-12 18.4 1.1.9 2.1 2.2 2.9 3.9l10 19.2c1.1 2.1.5 3.1-1.5 3.1h-5.3c-4 0-5.1-.5-6.2-2.7l-7.6-15.5c-2.5-5.1-4.6-6.4-10.8-6.4h-6.7v21.5c0 2.3-.8 3.1-3.1 3.1h-5.2c-2.3 0-3.2-.8-3.2-3.1v-58.4c0-2.3.9-3.1 3.2-3.1h25zm8.4 20c0-3-.8-5.4-2.5-7-1.6-1.5-4-2.4-7.1-2.4h-15.7v18.7h15.7c3 0 5.4-.8 7.1-2.5 1.7-1.5 2.5-3.8 2.5-6.8z" fill="#fff" data-color="1"></path>
        <path d="M1220.9 702.1c0-12.7 7.4-19.7 21.1-19.7 13.8 0 21 7.8 21 18.8v5.6c0 2.6-1.4 3.9-4.1 3.9h-27.5v3.4c0 5.9 3.7 9.1 10.4 9.1 5.1 0 8.6-1.6 10.7-4.8 1.5-2.1 2.5-2.3 4.6-1.1l3.2 1.7c2.1 1 2.5 2.5 1.1 4.6-3.5 5.8-10.1 8.7-19.7 8.7-14.2 0-20.9-7.6-20.9-19.5v-10.7zm31.5-1.4c0-5.9-3.5-9.3-10.5-9.3-6.8 0-10.6 3.4-10.6 9.3v2h21v-2z" fill="#fff" data-color="1"></path>
        <path d="M1289.4 682.5c9.7 0 16.3 3.3 19.5 9.7 1 1.8.5 3.2-1.5 4.1l-4.1 1.6c-2.1.8-2.6.6-3.8-1.3-1.7-3.2-5-4.7-9.8-4.7-5.7 0-8.6 1.6-8.6 4.9 0 4 2.7 4.9 10.6 5.6 12.4 1.2 18.6 4.5 18.6 14.7 0 9.2-7 15.2-19.7 15.2-10.6 0-17.5-3.6-20.3-11-.7-1.9-.1-3.2 1.8-3.8l4.1-1.3c1.8-.7 2.9-.4 3.7 1.7 1.4 3.4 4.8 5 10.3 5 6.5 0 9.6-1.8 9.6-5.4 0-4-2.8-5-10.9-5.8-4.3-.5-6.7-.8-10.3-2.2-1.7-.6-3.2-1.5-4.3-2.5-2.2-1.9-3.8-5.4-3.8-10 .1-8.9 6.6-14.5 18.9-14.5z" fill="#fff" data-color="1"></path>
        <path d="M1322.8 666.2c4.3 0 5.6 1.4 5.6 5.5v.8c0 4.3-1.3 5.6-5.6 5.6h-.6c-4.1 0-5.6-1.3-5.6-5.6v-.8c0-4.1 1.3-5.5 5.6-5.5h.6zm2.2 17.6c2.1 0 2.8.6 2.8 2.7v41.6c0 2.1-.7 2.8-2.8 2.8h-5c-2.1 0-2.7-.7-2.7-2.8v-41.6c0-2.1.6-2.7 2.7-2.7h5z" fill="#fff" data-color="1"></path>
        <path d="M1349.1 728.1c0 2.1-.7 2.8-2.8 2.8h-4.9c-2.2 0-2.8-.7-2.8-2.8v-61.7c0-2.1.6-2.8 2.8-2.8h4.9c2.1 0 2.8.7 2.8 2.8v61.7z" fill="#fff" data-color="1"></path>
        <path d="M1365.4 666.2c4.3 0 5.6 1.4 5.6 5.5v.8c0 4.3-1.3 5.6-5.6 5.6h-.6c-4.1 0-5.6-1.3-5.6-5.6v-.8c0-4.1 1.3-5.5 5.6-5.5h.6zm2.2 17.6c2.1 0 2.8.6 2.8 2.7v41.6c0 2.1-.7 2.8-2.8 2.8h-5c-2.1 0-2.7-.7-2.7-2.8v-41.6c0-2.1.6-2.7 2.7-2.7h5z" fill="#fff" data-color="1"></path>
        <path d="M1379.3 702.1c0-12.7 7.4-19.7 21.1-19.7 13.8 0 21 7.8 21 18.8v5.6c0 2.6-1.4 3.9-4.1 3.9h-27.5v3.4c0 5.9 3.7 9.1 10.4 9.1 5.1 0 8.6-1.6 10.7-4.8 1.5-2.1 2.5-2.3 4.6-1.1l3.2 1.7c2.1 1 2.5 2.5 1.1 4.6-3.5 5.8-10.1 8.7-19.7 8.7-14.2 0-20.9-7.6-20.9-19.5v-10.7zm31.6-1.4c0-5.9-3.5-9.3-10.5-9.3-6.8 0-10.6 3.4-10.6 9.3v2h21v-2z" fill="#fff" data-color="1"></path>
        <path d="M1451.1 682.5c12.7 0 18.9 6.6 18.9 18.3v27.4c0 2.1-.7 2.8-2.8 2.8h-5c-2.1 0-2.7-.7-2.7-2.8V701c0-5.9-3.3-8.9-9.9-8.9-2.9 0-5.8.4-8.7 1.2-.5.2-.6.5-.6.9v33.9c0 2.1-.6 2.8-2.7 2.8h-5c-2.1 0-2.8-.7-2.8-2.8v-37.4c0-2.9.6-4 3.5-5.2 5-2 11-3 17.8-3z" fill="#fff" data-color="1"></path>
        <path d="M1478.6 701.1c0-11.9 7-18.7 20.9-18.7 10.3 0 17 4.7 19.5 11.9.7 2.3.2 3.3-2 4.1l-4 1.3c-2.2.8-3.2.3-4-1.9-1.5-4.1-4.9-6.1-9.9-6.1-6.6 0-9.9 3-9.9 8.9v13.5c0 5.7 3.5 8.9 9.9 8.9 5 0 8.4-2.1 9.9-6.3.8-2.2 1.8-2.5 4-1.8l4.1 1.2c2.1.8 2.7 2.2 1.9 4.1-3.2 8.1-9.9 12.1-20.3 12.1-13.5 0-20.1-6.7-20.1-18.7v-12.5z" fill="#fff" data-color="1"></path>
        <path d="M1525.5 702.1c0-12.7 7.4-19.7 21.1-19.7 13.8 0 21 7.8 21 18.8v5.6c0 2.6-1.4 3.9-4.1 3.9H1536v3.4c0 5.9 3.7 9.1 10.4 9.1 5.1 0 8.6-1.6 10.7-4.8 1.5-2.1 2.5-2.3 4.6-1.1l3.2 1.7c2.1 1 2.5 2.5 1.1 4.6-3.5 5.8-10.1 8.7-19.7 8.7-14.2 0-20.9-7.6-20.9-19.5v-10.7zm31.6-1.4c0-5.9-3.5-9.3-10.5-9.3-6.8 0-10.6 3.4-10.6 9.3v2h21v-2z" fill="#fff" data-color="1"></path>
        <path d="M263.2 550.3c-5.3 0-8.6-5.7-6.1-10.3 10.8-20.2 24.8-36.2 42.5-49 87.1-63.2 208.8-15.3 229.5 90.4 1.2 6.3 3.3 8.9 10.2 8.7 18.1-.5 36.3.1 54.4-.3 7.6-.2 9.9 2 10.1 9.8 2.8 110.7-50.2 188.9-142.6 243.1-21.1 12.4-45.1 20.1-67.9 29.6-3.7 1.5-8.7 2-12.4.8-84.9-27-152.1-75.9-191.3-158-4.6-9.7-10.3-29-13.1-39.7-1-3.8 1.9-7.5 5.8-7.5 8.2 0 16.3-.1 24.4.2 1.5.1 3.5 2.9 4.1 4.8 27.6 83.2 88.1 131.3 168.5 158.2 3.4 1.1 7.6 1.8 10.8.7 77.7-25.1 137.4-70.6 167.4-149.1 6.1-16 9.6-32.8 10.7-51.3.1-1.7-1.3-3.1-3-3.1h-62.7c-3.4 0-6.1-2.8-6-6.2.2-9.5.8-18.2-.3-26.8-5.4-45.6-38-82.7-81.9-94.2-44.4-11.6-91.3 4.8-118.3 42.1-4 5.5-8 7.1-14.5 7.1-9.2.1-14.8.1-18.3 0z" fill="#ea7f26" data-color="2"></path>
        <path d="M509.4 660.9c6.1-.1 10 6.5 7.1 11.8-18 32.1-43.2 54.6-77.5 67.3-85.9 31.9-179.3-21.2-195.6-111-1-5.3-2.8-7-8.2-6.9-19.7.3-39.4 0-59.2.2-4.5 0-6.7-.8-6.7-6 .1-59.8 0-98.7-.1-156.5 0-4.6-.1-19.4-.1-19.4l36.4-1.7v136.8c0 6.2 1.2 7.5 7 7.4 19.7-.4 39.4 0 59.2-.2 4.9 0 6.9.5 6.1 6.6-6.7 49.3 22.2 97.6 68.9 116.2 46.8 18.7 100.9 3.2 130.4-37.8 3.7-5.1 7.3-7.4 13.6-7 6.1.2 12.2.2 18.7.2z" fill="#112444" data-color="3"></path>
        <path d="M597.5 440.4H169.1V325.2c0-5.5 4.5-10 10-10h418.4c5.5 0 10 4.5 10 10v105.1c0 5.6-4.5 10.1-10 10.1z" fill="#112444" data-color="3"></path>
        <path d="M597.5 559.2h-17c-5.5 0-10-4.5-10-10v-132h37v132c0 5.6-4.5 10-10 10z" fill="#112444" data-color="3"></path>
        <path d="M604 206.2H173.2c-2 0-3.6 1.6-3.6 3.6s1.6 3.6 3.6 3.6H604c2 0 3.6-1.6 3.6-3.6 0-1.9-1.6-3.6-3.6-3.6z" fill="#112444" data-color="3"></path>
        <path d="M205.7 335h27.4v9.6H225v65.3h8.2v9.6h-27.4v-9.6h8.2v-65.3h-8.2V335z" fill="#ffffff" data-color="4"></path>
        <path d="M298.6 350.6c-1.2-1.6-2.5-2.9-4-3.8-1.5-.9-3-1.5-4.8-2-1.7-.5-3.5-.7-5.2-.7-2.9 0-5.4.3-7.5 1-2.2.7-3.9 1.5-5.4 2.6-1.4 1.1-2.5 2.4-3.2 3.9-.7 1.5-1.1 3-1.1 4.7 0 2.5.4 4.4 1.3 5.9s2 2.7 3.4 3.6c1.4.9 2.9 1.6 4.5 2.1s3.2 1 4.7 1.6l11.4 3.7c3.4 1.1 6.5 2.3 9.1 3.7 2.6 1.4 4.8 3 6.6 4.9 1.8 1.9 3.1 4 4 6.5.9 2.5 1.4 5.3 1.4 8.5 0 3.5-.7 6.7-2.2 9.7-1.5 3-3.5 5.6-6.1 7.8-2.6 2.2-5.7 3.9-9.3 5.2-3.6 1.2-7.6 1.9-11.9 1.9-4.4 0-8.2-.5-11.3-1.5-3.1-1-5.8-2.3-7.9-4-2.1-1.7-3.8-3.5-5.1-5.7-1.3-2.1-2.3-4.3-3-6.5h-4.3v-9.6H267c0 4.1.4 7 1.3 8.8.9 1.7 2.1 3.1 3.7 4.3 1.6 1.1 3.5 2 5.7 2.6 2.2.6 4.6.9 7.2.9 2.6 0 4.9-.3 6.9-.9 2.1-.6 3.8-1.5 5.3-2.6s2.6-2.5 3.3-4.1c.8-1.6 1.2-3.4 1.2-5.5 0-2.3-.5-4.2-1.4-5.8-1-1.6-2.2-2.9-3.7-4s-3.2-2-5-2.7c-1.8-.7-3.5-1.3-5.2-1.8l-12.4-3.5c-2.7-.8-5.2-1.9-7.4-3.1-2.2-1.3-4.2-2.8-5.8-4.6-1.6-1.8-2.8-4-3.7-6.4-.9-2.4-1.3-5.3-1.3-8.4 0-3.2.6-6.3 1.9-9.1 1.3-2.8 3.2-5.3 5.7-7.4 2.5-2.1 5.5-3.8 9.1-5 3.6-1.2 7.7-1.8 12.4-1.8 3.1 0 5.9.4 8.5 1.1 2.6.7 4.9 1.7 7 3 2.1 1.3 3.9 2.8 5.6 4.6 1.6 1.8 3 3.8 4 5.9h4.2v9.6h-13.9c.2-3.5-.4-6-1.6-7.6z" fill="#ffffff" data-color="4"></path>
        <path d="M332 335h61.5v23.9h-11.6v-14.3h-30.6v27.2h29.5v9.4h-29.5V410h8.6v9.6H332V410h8.2v-65.3H332V335z" fill="#ffffff" data-color="4"></path>
        <path d="M470.4 357.3c-2.5-4.2-5.9-7.6-10.1-10-4.2-2.4-8.8-3.6-14-3.6-4.4 0-8.4.9-12 2.7-3.6 1.8-6.7 4.3-9.3 7.3-2.6 3.1-4.6 6.6-6 10.7-1.4 4-2.2 8.3-2.2 12.7 0 5.3.8 10 2.4 14 1.6 4.1 3.7 7.5 6.2 10.2 2.5 2.7 5.6 4.9 9.1 6.7 3.5 1.8 7.5 2.7 11.8 2.7 6 0 11.2-1.4 15.6-4.3 4.4-2.8 8.2-7.5 11.3-14l10 4.6c-1.4 4-3.9 7.9-7.3 11.6-3.4 3.7-7.7 6.7-12.7 9s-10.6 3.4-16.7 3.4c-5.9 0-11.2-1.1-16.1-3.3-4.9-2.2-9.3-5.3-13.1-9.3-3.8-4-6.8-8.8-8.8-14.3-2-5.5-3-11.2-3-17.2s1-11.7 3-17.1c2-5.4 4.9-10 8.5-14 3.6-4 8-7.1 13-9.4 5-2.3 10.5-3.4 16.4-3.4 5.2 0 9.8.7 13.6 2.2 3.8 1.5 7.1 3.2 9.7 5.2 2.7 2 5 4.2 6.9 6.6h6v9.9h-12.2z" fill="#ffffff" data-color="4"></path>
        <path d="M502 335h35.7c3.8 0 7.3.5 10.6 1.5 3.2 1 6 2.4 8.4 4.4 2.4 1.9 4.2 4.3 5.5 7.2 1.3 2.9 2 6.2 2 9.9 0 2.1-.4 4.2-1.2 6.3-.8 2.1-1.9 4-3.2 5.7-1.4 1.8-3 3.3-4.9 4.7-1.9 1.4-3.9 2.4-6.2 3.2.9.4 1.9 1 2.9 1.8s1.9 1.7 2.7 2.8c.8 1.1 1.6 2.3 2.3 3.7.7 1.4 1.3 2.9 1.7 4.5l4.8 18.4h7.4l.1 10.6h-16.7l-6.4-25.7c-1.2-4.6-3-8-5.4-10.2-2.4-2.2-5.7-3.3-9.8-3.3h-11v29.6h8.6v9.6H502v-9.6h8.2v-65.3H502V335zm19.2 9.6v26.6h16.5c2.2 0 4.1-.3 5.9-.8 1.8-.6 3.3-1.4 4.6-2.5 1.3-1.1 2.3-2.5 3.1-4.2.7-1.7 1.1-3.6 1.1-5.8 0-4.2-1.3-7.5-3.9-9.8-2.6-2.3-6.6-3.5-12.2-3.5h-15.1z" fill="#ffffff" data-color="4"></path>
        <path d="M205.3 222.2H240c3.9 0 7.4.5 10.6 1.5 3.2 1 6 2.4 8.4 4.4 2.4 1.9 4.2 4.3 5.5 7.2 1.3 2.9 2 6.2 2 9.9 0 3.1-.6 6-1.9 8.7-1.3 2.7-3.1 5.1-5.4 7.2-2.3 2-5.1 3.7-8.4 4.9-3.3 1.2-6.9 1.8-10.9 1.8h-15.2v29.6h8.6v9.6h-27.9v-9.6h8.2v-65.3h-8.2v-9.9zm19.2 9.6v26.6H240c2.2 0 4.1-.3 5.9-.9 1.8-.6 3.3-1.4 4.6-2.5 1.3-1.1 2.3-2.5 3.1-4.2.7-1.7 1.1-3.6 1.1-5.8 0-4.2-1.3-7.4-3.9-9.7-2.6-2.3-6.7-3.5-12.3-3.5h-14z" fill="#fff" data-color="1"></path>
        <path d="M301.4 222.2H363v23.9h-11.6v-14.3h-30.6v27h25.8v9.6h-25.8v28.7h30.6v-14.3H363v23.9h-61.5v-9.6h8.2v-65.3h-8.2v-9.6z" fill="#fff" data-color="1"></path>
        <path d="M440.6 237.8c-1.2-1.6-2.5-2.9-4-3.8-1.5-.9-3-1.5-4.8-2-1.7-.5-3.5-.7-5.2-.7-2.9 0-5.4.3-7.5 1-2.2.7-3.9 1.5-5.4 2.6-1.4 1.1-2.5 2.4-3.2 3.9-.7 1.5-1.1 3-1.1 4.7 0 2.5.4 4.4 1.3 5.9s2 2.7 3.4 3.6c1.4.9 2.9 1.6 4.5 2.1s3.2 1 4.7 1.6l11.4 3.7c3.4 1.1 6.5 2.3 9.1 3.7 2.6 1.4 4.8 3 6.6 4.9 1.8 1.9 3.1 4 4 6.5.9 2.5 1.4 5.3 1.4 8.5 0 3.5-.7 6.7-2.2 9.7-1.5 3-3.5 5.6-6.1 7.8-2.6 2.2-5.7 3.9-9.3 5.2-3.6 1.2-7.6 1.9-11.9 1.9-4.4 0-8.2-.5-11.3-1.5-3.1-1-5.8-2.3-7.9-4-2.1-1.7-3.8-3.5-5.1-5.7-1.3-2.1-2.3-4.3-3-6.5h-4.3v-9.6H409c0 4.1.4 7 1.3 8.8.9 1.7 2.1 3.1 3.7 4.3 1.6 1.1 3.5 2 5.7 2.6 2.2.6 4.6.9 7.2.9 2.6 0 4.9-.3 6.9-.9 2.1-.6 3.8-1.5 5.3-2.6s2.6-2.5 3.3-4.1c.8-1.6 1.2-3.4 1.2-5.5 0-2.3-.5-4.2-1.4-5.8-1-1.6-2.2-2.9-3.7-4s-3.2-2-5-2.7c-1.8-.7-3.5-1.3-5.2-1.8l-12.4-3.5c-2.7-.8-5.2-1.9-7.4-3.1-2.2-1.3-4.2-2.8-5.8-4.6-1.6-1.8-2.8-4-3.7-6.4-.9-2.4-1.3-5.3-1.3-8.4 0-3.2.6-6.3 1.9-9.1 1.3-2.8 3.2-5.3 5.7-7.4 2.5-2.1 5.5-3.8 9.1-5 3.6-1.2 7.7-1.8 12.4-1.8 3.1 0 5.9.4 8.5 1.1 2.6.7 4.9 1.7 7 3 2.1 1.3 3.9 2.8 5.6 4.6 1.6 1.8 3 3.8 4 5.9h4.2v9.6h-13.9c.2-3.5-.4-6-1.6-7.6z" fill="#fff" data-color="1"></path>
        <path d="M489.4 222.2h27.8v9.6h-8.8v39.4c0 4.7.5 8.7 1.6 12.1 1.1 3.3 2.6 6 4.5 8.1 1.9 2.1 4.2 3.6 6.8 4.6 2.6 1 5.5 1.4 8.6 1.4 3.2 0 6.2-.4 8.9-1.3s5-2.3 7-4.3c1.9-2 3.5-4.7 4.5-8.1 1.1-3.4 1.6-7.6 1.6-12.6v-39.4h-9.3v-9.6h27.8v9.6h-7.6V270c0 6.1-.9 11.5-2.6 16.2-1.7 4.7-4.1 8.7-7.1 11.9-3 3.2-6.5 5.6-10.5 7.3-4 1.7-8.4 2.5-13 2.5-4.5 0-8.8-.8-12.7-2.5-3.9-1.6-7.4-4-10.3-7.2-2.9-3.2-5.2-7-6.9-11.6-1.7-4.6-2.5-9.8-2.5-15.6v-39.2h-7.9v-9.6z" fill="#fff" data-color="1"></path>
        <path d="M387.4 554.5c27.9 0 50.6 22.7 50.6 50.6s-22.7 50.6-50.6 50.6-50.6-22.7-50.6-50.6 22.7-50.6 50.6-50.6m0-23.6c-41 0-74.2 33.2-74.2 74.2s33.2 74.2 74.2 74.2 74.2-33.2 74.2-74.2-33.2-74.2-74.2-74.2z" fill="#112444" data-color="3"></path>
        <path d="M348.6 623.6c-.8 0-1.6-.5-1.9-1.3-2.3-5.4-3.5-11.2-3.5-17.1 0-1.1.9-2.1 2.1-2.1s2.1.9 2.1 2.1c0 5.4 1.1 10.6 3.1 15.5.4 1.1 0 2.3-1.1 2.7-.2.2-.5.2-.8.2z" fill="#fff" data-color="1"></path>
        <path d="M424.6 628.5c-.3 0-.6-.1-.9-.2-1-.5-1.5-1.7-1-2.8 1.8-3.8 2.9-7.8 3.5-11.9.1-1.1 1.2-1.9 2.3-1.8 1.1.1 1.9 1.2 1.8 2.3-.6 4.6-1.9 9-3.8 13.2-.4.8-1.1 1.2-1.9 1.2z" fill="#fff" data-color="1"></path>
        <path d="M429.1 607.3c-1.1 0-2.1-.9-2.1-2.1 0-16-9.5-30.4-24.3-36.7-1.1-.4-1.6-1.7-1.1-2.7.4-1.1 1.7-1.5 2.7-1.1 16.3 6.9 26.9 22.8 26.9 40.5 0 1.2-.9 2.1-2.1 2.1z" fill="#fff" data-color="1"></path>
        <path d="M347.7 593.6c-.2 0-.5 0-.7-.1-1.1-.4-1.7-1.6-1.3-2.6 6.1-17.7 22.8-29.5 41.5-29.5 1.1 0 2.1.9 2.1 2.1 0 1.1-.9 2.1-2.1 2.1-16.9 0-32.1 10.7-37.6 26.7-.3.7-1.1 1.3-1.9 1.3z" fill="#fff" data-color="1"></path>
        <path d="M354 611.4c-1 0-1.9-.8-2.1-1.8-.2-1.4-.3-2.9-.3-4.3 0-12.6 6.8-24.4 17.7-30.8 1-.6 2.3-.2 2.8.7.6 1 .2 2.3-.7 2.8-9.7 5.6-15.6 16-15.6 27.2 0 1.3.1 2.6.2 3.8.1 1.1-.7 2.2-1.8 2.3-.1.1-.1.1-.2.1z" fill="#fff" data-color="1"></path>
        <path d="M407.8 580.9c-.4 0-.9-.1-1.3-.4-5.6-4.3-12.2-6.6-19.3-6.6-1.5 0-3.1.1-4.5.3-1.1.2-2.2-.6-2.4-1.8-.2-1.1.6-2.2 1.8-2.4 1.7-.2 3.4-.4 5.1-.4 8 0 15.6 2.6 21.9 7.5.9.7 1.1 2 .4 2.9-.4.6-1 .9-1.7.9z" fill="#fff" data-color="1"></path>
        <path d="M409.3 643c-.5 0-.9-.2-1.3-.5-.9-.7-1-2-.3-2.9 10.8-13.2 16-36 6-51.4-.6-1-.3-2.2.6-2.9 1-.6 2.2-.3 2.9.6 5.1 7.9 7.1 18.2 5.5 29.1-1.4 9.9-5.7 19.8-11.8 27.2-.4.5-1 .8-1.6.8z" fill="#fff" data-color="1"></path>
        <path d="M389.4 620c-1.1 0-2-.9-2.1-2-.2-4-.7-7.9-1.7-11.5-.3-1.1.4-2.2 1.5-2.5 1.1-.3 2.2.4 2.5 1.5 1.1 3.9 1.7 8.1 1.8 12.4.1 1-.8 2-2 2.1z" fill="#fff" data-color="1"></path>
        <path d="M384.6 649.2c-.3 0-.5 0-.8-.1-1.1-.4-1.6-1.6-1.2-2.7 2.8-6.9 4.5-14.3 5-21.3.1-1.1 1.1-2 2.2-1.9 1.1.1 2 1.1 1.9 2.2-.5 7.5-2.4 15.3-5.3 22.6-.2.7-1 1.2-1.8 1.2z" fill="#fff" data-color="1"></path>
        <path d="M354.5 633.4c-.2 0-.4 0-.6-.1-1.1-.3-1.7-1.5-1.4-2.6 1.1-4 1.5-8.4.9-12.7-.1-1.1.7-2.2 1.8-2.3 1.1-.1 2.2.7 2.3 1.8.6 4.9.2 9.8-1.1 14.3-.2 1-1 1.6-1.9 1.6z" fill="#fff" data-color="1"></path>
        <path d="M412.6 607.3c-1.1 0-2.1-.9-2.1-2.1 0-7.7-3.8-14.9-10.1-19.2-.9-.6-1.2-1.9-.5-2.9.6-.9 1.9-1.2 2.9-.5 7.5 5.1 11.9 13.6 11.9 22.7 0 1.1-.9 2-2.1 2z" fill="#fff" data-color="1"></path>
        <path d="M361.9 607.3c-1.1 0-2.1-.9-2.1-2.1 0-15.1 12.3-27.5 27.5-27.5.9 0 1.9 0 2.8.1 1.1.1 2 1.1 1.9 2.3-.1 1.1-1.1 2-2.3 1.9-.8-.1-1.6-.1-2.4-.1-12.9 0-23.3 10.5-23.3 23.3-.1 1.2-1 2.1-2.1 2.1z" fill="#fff" data-color="1"></path>
        <path d="M361.2 640.2c-.2 0-.5 0-.7-.1-1.1-.4-1.6-1.6-1.2-2.7 1.7-4.5 2.5-9.2 2.5-14.1 0-3.2-.4-6.3-1.1-9.4-.3-1.1.4-2.2 1.5-2.5 1.1-.3 2.2.4 2.5 1.5.8 3.4 1.2 6.8 1.2 10.3 0 5.3-.9 10.6-2.8 15.5-.3.9-1.1 1.5-1.9 1.5z" fill="#fff" data-color="1"></path>
        <path d="M392.8 649.4c-.7 0-1.3-.3-1.7-.9-.6-.9-.4-2.2.5-2.9 10.5-7.2 17.2-18.2 18.9-31 .2-1.1 1.2-1.9 2.3-1.8 1.1.2 1.9 1.2 1.8 2.3-1.9 14-9.2 26-20.7 33.9-.3.3-.7.4-1.1.4z" fill="#fff" data-color="1"></path>
        <path d="M372.3 599.6c-.3 0-.7-.1-1-.2-1-.5-1.4-1.8-.9-2.8 3.3-6.3 9.7-10.2 16.8-10.2 4.7 0 9.2 1.7 12.7 4.9.8.8.9 2.1.1 2.9-.8.8-2.1.9-2.9.1-2.7-2.5-6.2-3.8-9.9-3.8-5.5 0-10.5 3-13.1 7.9-.3.8-1 1.2-1.8 1.2z" fill="#fff" data-color="1"></path>
        <path d="M373.1 627.4c-1.1 0-2.1-.9-2.1-2.1 0-5.9-.8-11.8-2.4-17.5-.3-1.1.3-2.2 1.4-2.6 1.1-.3 2.2.3 2.6 1.4 1.7 6.1 2.5 12.3 2.5 18.6 0 1.3-.9 2.2-2 2.2z" fill="#fff" data-color="1"></path>
        <path d="M369.1 645.1c-.3 0-.6-.1-.9-.2-1-.5-1.5-1.7-1-2.7 1.4-3 2.3-6.2 2.9-9.4.2-1.1 1.3-1.9 2.4-1.7 1.1.2 1.9 1.3 1.7 2.4-.6 3.6-1.7 7.1-3.2 10.4-.3.7-1.1 1.2-1.9 1.2z" fill="#fff" data-color="1"></path>
        <path d="M405.8 618.1h-.1c-1.1-.1-2-1.1-1.9-2.2.3-4.9-.3-9.7-2-14.3-.4-1.1.2-2.3 1.3-2.6 1.1-.4 2.3.2 2.6 1.3 1.8 5.1 2.5 10.5 2.2 15.9-.1 1-1 1.9-2.1 1.9z" fill="#fff" data-color="1"></path>
        <path d="M376.4 647.8c-.3 0-.6-.1-.8-.2-1-.5-1.5-1.7-1.1-2.7 1-2.2 1.8-4.5 2.5-6.8.3-1.1 1.5-1.7 2.6-1.4 1.1.3 1.7 1.5 1.4 2.6-.7 2.5-1.6 4.9-2.7 7.3-.3.8-1.1 1.2-1.9 1.2z" fill="#fff" data-color="1"></path>
        <path d="M380.4 634.3h-.3c-1.1-.2-1.9-1.2-1.7-2.4.5-3.2.6-6.6.4-9.9-.1-1.6-.3-3.2-.5-4.7-.2-1.1.6-2.2 1.7-2.4 1.1-.2 2.2.6 2.4 1.7.3 1.7.5 3.4.6 5.1.2 3.6.1 7.2-.5 10.8-.3 1.1-1.1 1.8-2.1 1.8z" fill="#fff" data-color="1"></path>
        <path d="M398.6 620.7c-1.1 0-2.1-.9-2.1-2.1 0-7-1.9-20.1-9.3-20.1-3.7 0-6.7 3-6.7 6.7v.4c.1 1.1-.8 2.1-2 2.2-1.2.1-2.1-.8-2.2-2v-.6c0-6 4.9-10.9 10.9-10.9 9.9 0 13.4 13.1 13.4 24.3.1 1.2-.9 2.1-2 2.1z" fill="#fff" data-color="1"></path>
        <path d="M394.6 639.4c-.3 0-.6-.1-.8-.2-1-.5-1.5-1.7-1.1-2.7 1.6-3.5 2.7-7.3 3.3-11.1.2-1.1 1.2-1.9 2.4-1.7 1.1.2 1.9 1.2 1.7 2.4-.6 4.2-1.8 8.3-3.6 12.1-.3.8-1.1 1.2-1.9 1.2z" fill="#fff" data-color="1"></path>
        <path d="M345.4 576.9c-4.4-7-24.4-38.5-26.1-41.1 3 1.9 38.3 24.3 41.4 26.3-8.2 5.9-9 6.6-15.3 14.8z" fill="#ea7f26" data-color="2"></path>
        <path d="M388.8 644.8c-.1 0-.1-.1-.1-.1s.1 0 .1.1z" fill="#2d80a6" data-color="5"></path>
        <path fill="#2d80a6" d="M386.9 643.3v-.1.1z" data-color="5"></path>
        <path d="M399.6 644s0 .1 0 0c.1.1 0 0 0 0z" fill="#2d80a6" data-color="5"></path>
        <path d="m410.6 617.3.1-.1h.1v.2c-.1 0-.2-.1-.2-.1z" fill="#09435f" data-color="6"></path>
        <path d="M400.5 643.2c-.1-.1-.1-.1 0 0-.1-.1-.1-.1 0 0-.1-.1-.1-.1 0 0z" fill="#09435f" data-color="6"></path>
        <path d="M376 555.8c1.9-8.3 11.2-50.2 12.6-56.9 1.5 6.9 11.7 52.3 12.9 57.6-5.7-1.7-16.5-2.8-25.5-.7z" fill="#e21f25" data-color="7"></path>
        <path d="M401.2 653.8c-1.9 8.3-11.2 51.6-12.7 58.2-1.6-6.6-11.7-52.4-12.9-57.7 12.1 2.1 15.4 1.7 25.6-.5z" fill="#e21f25" data-color="7"></path>
        <path d="M436.4 592.5c8.3 1.9 50.9 11.2 57.5 12.7-6.9 1.6-52.4 11.7-57.7 12.9 2.4-12 2.2-15.4.2-25.6z" fill="#e21f25" data-color="7"></path>
        <path d="M338.4 617.9c-8.3-1.9-50.2-11-57.7-12.7 7.8-1.8 52.4-11.7 57.7-12.9-2.3 12.1-2 15.4 0 25.6z" fill="#e21f25" data-color="7"></path>
        <path d="M430.4 631.8c4.4 7 25.1 39.1 26.7 41.8-2.6-1.5-38.4-24.4-41.6-26.4 8.2-6.2 8.8-7.2 14.9-15.4z" fill="#ea7f26" data-color="2"></path>
        <path d="M415.7 563.2c7-4.4 38.5-24.4 41.1-26.1-1.6 2.7-24.3 38.3-26.3 41.5-5.9-8.3-6.6-9.1-14.8-15.4z" fill="#ea7f26" data-color="2"></path>
        <path d="M361 648.3c-7 4.4-39.4 25-42.1 26.6 2.1-3.4 24.4-38.5 26.4-41.6 6 8.2 7.5 8.8 15.7 15z" fill="#ea7f26" data-color="2"></path>
    </g>
</svg>